<mxfile host="app.diagrams.net" modified="2022-07-25T01:54:03.469Z" agent="5.0 (Windows NT 10.0; Win64; x64) AppleWebKit/537.36 (KHTML, like Gecko) Chrome/102.0.0.0 Safari/537.36" etag="X6YjVFw8XJ_d5SVjP3Af" version="20.0.4" type="github">
  <diagram id="bbn4WEPqyENCLP_PK24W" name="Page-1">
    <mxGraphModel dx="1422" dy="754" grid="1" gridSize="10" guides="1" tooltips="1" connect="1" arrows="1" fold="1" page="1" pageScale="1" pageWidth="1100" pageHeight="850" math="0" shadow="0">
      <root>
        <mxCell id="0" />
        <mxCell id="1" parent="0" />
        <mxCell id="ovz8IwlGmj3j4p8Ko8Wg-1" value="k8s" style="rounded=1;whiteSpace=wrap;html=1;" vertex="1" parent="1">
          <mxGeometry x="460" y="110" width="120" height="60" as="geometry" />
        </mxCell>
        <mxCell id="ovz8IwlGmj3j4p8Ko8Wg-2" value="cinder" style="rounded=1;whiteSpace=wrap;html=1;" vertex="1" parent="1">
          <mxGeometry x="470" y="280" width="120" height="60" as="geometry" />
        </mxCell>
        <mxCell id="ovz8IwlGmj3j4p8Ko8Wg-3" value="Ceph" style="rounded=0;whiteSpace=wrap;html=1;" vertex="1" parent="1">
          <mxGeometry x="320" y="420" width="120" height="60" as="geometry" />
        </mxCell>
        <mxCell id="ovz8IwlGmj3j4p8Ko8Wg-4" value="LVM" style="rounded=0;whiteSpace=wrap;html=1;" vertex="1" parent="1">
          <mxGeometry x="480" y="420" width="120" height="60" as="geometry" />
        </mxCell>
        <mxCell id="ovz8IwlGmj3j4p8Ko8Wg-5" value="各供应商的 FC 设备" style="rounded=0;whiteSpace=wrap;html=1;" vertex="1" parent="1">
          <mxGeometry x="670" y="420" width="120" height="60" as="geometry" />
        </mxCell>
      </root>
    </mxGraphModel>
  </diagram>
</mxfile>
